<?xml version="1.0" standalone="no"?><!DOCTYPE svg PUBLIC "-//W3C//DTD SVG 1.1//EN" "http://www.w3.org/Graphics/SVG/1.1/DTD/svg11.dtd"><svg t="1494385047769" class="icon" style="" viewBox="0 0 1024 1024" version="1.1" xmlns="http://www.w3.org/2000/svg" p-id="2352" xmlns:xlink="http://www.w3.org/1999/xlink" width="32" height="32"><defs><style type="text/css"></style></defs><path d="M921.6 347.8016l-271.0016-271.0016c-9.6256-9.6256-22.528-14.9504-36.1984-14.9504s-26.5728 5.3248-36.1984 14.9504l-15.0016 15.0016c-14.848 14.848-25.6 40.8064-25.6 61.7984l0 51.2c0 7.2704-5.4272 20.4288-10.5984 25.6l-143.0016 143.0016c-5.1712 5.1712-18.3296 10.5984-25.6 10.5984l-51.2 0c-20.992 0-46.9504 10.752-61.7984 25.6l-15.0016 15.0016c-19.968 19.968-19.968 52.4288 0 72.3968l79.5136 79.5136-253.44 329.472c-7.8336 10.1888-6.912 24.6272 2.2016 33.6896 4.9664 4.9664 11.52 7.4752 18.1248 7.4752 5.4784 0 10.9568-1.7408 15.616-5.3248l329.472-253.44 79.5136 79.5136c9.6256 9.6256 22.528 14.9504 36.1984 14.9504s26.5728-5.3248 36.1984-14.9504l15.0016-15.0016c14.848-14.848 25.6-40.8064 25.6-61.7984l0-51.2c0-7.2704 5.4272-20.4288 10.5984-25.6l143.0016-143.0016c5.1712-5.1712 18.3296-10.5984 25.6-10.5984l51.2 0c20.992 0 46.9504-10.752 61.7984-25.6l15.0016-15.0016c9.6256-9.6256 14.9504-22.528 14.9504-36.1984s-5.3248-26.5728-14.9504-36.1984zM216.7808 781.6192l129.6896-168.6016 38.912 38.912-168.6016 129.6896zM870.4 399.0016c-5.1712 5.1712-18.3296 10.5984-25.6 10.5984l-51.2 0c-20.992 0-46.9504 10.752-61.7984 25.6l-143.0016 143.0016c-14.848 14.848-25.6 40.8064-25.6 61.7984l0 51.2c0 7.2704-5.4272 20.4288-10.5984 25.6l-14.9504 14.9504c0 0-0.0512 0-0.0512 0l0 0.0512-271.0016-271.0016 15.0016-15.0016c5.1712-5.1712 18.3296-10.5984 25.6-10.5984l51.2 0c20.992 0 46.9504-10.752 61.7984-25.6l143.0016-143.0016c14.848-14.848 25.6-40.8064 25.6-61.7984l0-51.2c0-7.2704 5.4272-20.4288 10.5984-25.6l15.0016-15.0016 271.0016 271.0016-15.0016 15.0016z" p-id="2353" fill="#ffffff"></path></svg>